<svg xmlns="http://www.w3.org/2000/svg" viewBox="0 0 1000 1000" width="1000" height="1000" role="img" aria-label="Kamal Jewellers"><defs><linearGradient id="kjg" gradientUnits="userSpaceOnUse" x1="300" y1="560" x2="700" y2="260"><stop offset="0" stop-color="#9A7127"/><stop offset="0.42" stop-color="#D4A949"/><stop offset="0.74" stop-color="#F2D88A"/><stop offset="1" stop-color="#FBEBB5"/></linearGradient><linearGradient id="kjd" gradientUnits="userSpaceOnUse" x1="120" y1="800" x2="880" y2="200"><stop offset="0" stop-color="#7C5A1F"/><stop offset="0.5" stop-color="#C09A45"/><stop offset="1" stop-color="#E8CF86"/></linearGradient><mask id="cut" maskUnits="userSpaceOnUse" x="0" y="0" width="1000" height="1000"><rect width="1000" height="1000" fill="#000"/><path d="M304,250 C324,244 350,246 378,254 C360,300 358,356 372,408 C390,456 432,490 486,506 C410,502 346,474 320,426 C296,386 296,320 304,250 Z" transform="" fill="#fff" stroke="#000" stroke-width="9" stroke-linejoin="round"/><path d="M696,250 C676,244 650,246 622,254 C640,300 642,356 628,408 C610,456 568,490 514,506 C590,502 654,474 680,426 C704,386 704,320 696,250 Z" transform="" fill="#fff" stroke="#000" stroke-width="9" stroke-linejoin="round"/><path d="M418,226 C438,234 454,246 454,254 C436,304 426,354 428,412 C430,456 452,486 486,502 C440,500 394,478 374,436 C360,396 362,308 382,252 C390,238 404,230 418,226 Z" transform="" fill="#fff" stroke="#000" stroke-width="9" stroke-linejoin="round"/><path d="M582,226 C562,234 546,246 546,254 C564,304 574,354 572,412 C570,456 548,486 514,502 C560,500 606,478 626,436 C640,396 638,308 618,252 C610,238 596,230 582,226 Z" transform="" fill="#fff" stroke="#000" stroke-width="9" stroke-linejoin="round"/><path d="M500,214 C474,262 430,332 430,426 C430,480 464,508 500,508 C536,508 570,480 570,426 C570,332 526,262 500,214 Z" transform="" fill="#fff" stroke="#000" stroke-width="9" stroke-linejoin="round"/><path d="M278,508 C330,552 424,556 498,518 C490,562 474,592 440,604 C376,626 310,588 278,508 Z" fill="#fff" stroke="#000" stroke-width="9" stroke-linejoin="round"/><path d="M722,508 C670,552 576,556 502,518 C510,562 526,592 560,604 C624,626 690,588 722,508 Z" fill="#fff" stroke="#000" stroke-width="9" stroke-linejoin="round"/><path d="M500,642 C466,618 424,598 422,562 C422,530 456,514 500,514 C544,514 578,530 578,562 C576,598 534,618 500,642 Z" fill="#fff" stroke="#000" stroke-width="9" stroke-linejoin="round"/></mask></defs><circle cx="500" cy="500" r="494" fill="#050403"/><g mask="url(#cut)" fill="url(#kjg)"><rect x="240" y="190" width="520" height="460"/></g><path d="M468,668 C452,710 430,762 410,816" fill="none" stroke="url(#kjg)" stroke-width="31" stroke-linecap="round" stroke-linejoin="round"/><path d="M522,668 C504,704 484,728 458,752" fill="none" stroke="url(#kjg)" stroke-width="37" stroke-linecap="round" stroke-linejoin="round"/><path d="M466,752 C486,764 500,786 514,806 C518,812 526,812 534,804" fill="none" stroke="url(#kjg)" stroke-width="37" stroke-linecap="round" stroke-linejoin="round"/><path d="M364,724 C372,698 398,676 438,670" fill="none" stroke="url(#kjg)" stroke-width="33" stroke-linecap="round" stroke-linejoin="round"/><path d="M556,710 C580,696 606,686 634,682" fill="none" stroke="url(#kjg)" stroke-width="35" stroke-linecap="round" stroke-linejoin="round"/><path d="M620,688 C622,734 618,774 598,798 C584,814 562,812 552,790" fill="none" stroke="url(#kjg)" stroke-width="39" stroke-linecap="round" stroke-linejoin="round"/><path d="M299.1,894.8a8.7,5.5 96 1 0 -2.0,17.3a8.7,5.5 96 1 0 2.0,-17.3M161.9,670.0a5.0,4.6 113 1 0 -3.9,9.2a5.0,4.6 113 1 0 3.9,-9.2M127.2,293.2a11.7,6.9 155 1 0 -21.1,10.0a11.7,6.9 155 1 0 21.1,-10.0M212.8,165.0a7.6,4.2 11 1 0 14.8,2.8a7.6,4.2 11 1 0 -14.8,-2.8M440.0,49.7a12.0,10.0 75 1 0 6.1,23.3a12.0,10.0 75 1 0 -6.1,-23.3M282.1,207.4a8.0,6.3 69 1 0 5.6,15.0a8.0,6.3 69 1 0 -5.6,-15.0M917.6,559.4a5.2,4.3 11 1 0 10.2,1.9a5.2,4.3 11 1 0 -10.2,-1.9M255.9,784.9a9.5,5.4 32 1 0 16.1,10.0a9.5,5.4 32 1 0 -16.1,-10.0M536.6,922.2a7.7,5.1 1 1 0 15.5,0.2a7.7,5.1 1 1 0 -15.5,-0.2M609.3,935.5a6.2,3.2 0 1 0 12.4,0.0a6.2,3.2 0 1 0 -12.4,-0.0M499.4,934.7a6.2,5.9 153 1 0 -11.1,5.7a6.2,5.9 153 1 0 11.1,-5.7M82.6,585.7a4.9,2.9 62 1 0 4.7,8.7a4.9,2.9 62 1 0 -4.7,-8.7M702.0,98.7a5.6,4.2 43 1 0 8.2,7.7a5.6,4.2 43 1 0 -8.2,-7.7M42.2,432.8a6.9,5.9 1 1 0 13.9,0.2a6.9,5.9 1 1 0 -13.9,-0.2M152.5,363.6a8.3,5.6 22 1 0 15.5,6.2a8.3,5.6 22 1 0 -15.5,-6.2M731.8,825.1a7.8,7.3 159 1 0 -14.6,5.6a7.8,7.3 159 1 0 14.6,-5.6M166.0,669.8a8.3,7.6 27 1 0 14.9,7.5a8.3,7.6 27 1 0 -14.9,-7.5M142.0,324.5a4.9,3.3 124 1 0 -5.5,8.2a4.9,3.3 124 1 0 5.5,-8.2M442.2,946.8a7.6,4.0 20 1 0 14.3,5.1a7.6,4.0 20 1 0 -14.3,-5.1M930.4,635.4a6.0,3.6 137 1 0 -8.7,8.2a6.0,3.6 137 1 0 8.7,-8.2M45.9,495.3a6.2,2.8 45 1 0 8.8,8.8a6.2,2.8 45 1 0 -8.8,-8.8M133.8,745.6a4.9,4.0 13 1 0 9.5,2.1a4.9,4.0 13 1 0 -9.5,-2.1M623.5,901.3a4.8,3.1 16 1 0 9.2,2.7a4.8,3.1 16 1 0 -9.2,-2.7M941.8,612.2a6.0,4.3 105 1 0 -3.2,11.5a6.0,4.3 105 1 0 3.2,-11.5M331.3,132.5a5.4,3.4 24 1 0 9.8,4.4a5.4,3.4 24 1 0 -9.8,-4.4M245.3,114.9a9.6,5.6 13 1 0 18.8,4.5a9.6,5.6 13 1 0 -18.8,-4.5M769.3,846.3a9.5,4.3 102 1 0 -4.0,18.6a9.5,4.3 102 1 0 4.0,-18.6M82.1,453.5a6.8,3.8 161 1 0 -12.9,4.5a6.8,3.8 161 1 0 12.9,-4.5M773.7,821.0a11.0,7.7 148 1 0 -18.5,11.8a11.0,7.7 148 1 0 18.5,-11.8M917.7,506.7a6.7,4.2 25 1 0 12.1,5.7a6.7,4.2 25 1 0 -12.1,-5.7M852.2,313.5a9.8,6.3 67 1 0 7.6,18.0a9.8,6.3 67 1 0 -7.6,-18.0M941.0,425.6a8.6,5.6 100 1 0 -3.1,17.0a8.6,5.6 100 1 0 3.1,-17.0M791.5,298.5a6.0,3.0 35 1 0 9.9,6.8a6.0,3.0 35 1 0 -9.9,-6.8M253.3,874.7a5.6,5.0 103 1 0 -2.4,10.9a5.6,5.0 103 1 0 2.4,-10.9M910.0,656.5a11.9,9.1 91 1 0 -0.3,23.8a11.9,9.1 91 1 0 0.3,-23.8M789.5,155.0a5.7,3.9 72 1 0 3.6,10.9a5.7,3.9 72 1 0 -3.6,-10.9M854.4,390.9a9.0,7.2 6 1 0 17.9,1.8a9.0,7.2 6 1 0 -17.9,-1.8M835.0,233.2a7.7,7.1 70 1 0 5.2,14.6a7.7,7.1 70 1 0 -5.2,-14.6M663.7,160.5a9.7,5.1 20 1 0 18.3,6.5a9.7,5.1 20 1 0 -18.3,-6.5M232.8,146.0a5.1,4.1 115 1 0 -4.2,9.2a5.1,4.1 115 1 0 4.2,-9.2M822.5,215.4a5.5,4.4 173 1 0 -10.9,1.4a5.5,4.4 173 1 0 10.9,-1.4M315.0,176.2a5.2,3.5 61 1 0 5.1,9.2a5.2,3.5 61 1 0 -5.1,-9.2M924.8,410.5a10.2,8.5 40 1 0 15.6,13.1a10.2,8.5 40 1 0 -15.6,-13.1M393.9,845.1a6.3,4.2 40 1 0 9.6,8.1a6.3,4.2 40 1 0 -9.6,-8.1M454.1,140.9a8.7,8.0 33 1 0 14.6,9.6a8.7,8.0 33 1 0 -14.6,-9.6M952.2,590.5a11.7,10.5 135 1 0 -16.4,16.7a11.7,10.5 135 1 0 16.4,-16.7M307.4,889.7a9.7,8.0 36 1 0 15.8,11.3a9.7,8.0 36 1 0 -15.8,-11.3M761.1,259.1a5.3,3.7 17 1 0 10.2,3.2a5.3,3.7 17 1 0 -10.2,-3.2M501.8,117.1a7.5,4.5 151 1 0 -13.2,7.2a7.5,4.5 151 1 0 13.2,-7.2M95.9,315.9a9.2,5.3 45 1 0 13.2,13.0a9.2,5.3 45 1 0 -13.2,-13.0M711.2,800.5a6.9,6.5 71 1 0 4.4,13.0a6.9,6.5 71 1 0 -4.4,-13.0M479.3,911.4a8.0,4.9 2 1 0 16.0,0.6a8.0,4.9 2 1 0 -16.0,-0.6M309.2,91.9a6.0,4.3 143 1 0 -9.6,7.2a6.0,4.3 143 1 0 9.6,-7.2M702.9,837.6a6.2,5.8 55 1 0 7.1,10.2a6.2,5.8 55 1 0 -7.1,-10.2M196.5,838.6a9.4,8.5 1 1 0 18.8,0.3a9.4,8.5 1 1 0 -18.8,-0.3M209.5,801.4a5.1,4.7 94 1 0 -0.7,10.2a5.1,4.7 94 1 0 0.7,-10.2M843.1,372.6a6.2,4.0 167 1 0 -12.1,2.9a6.2,4.0 167 1 0 12.1,-2.9M844.9,262.4a9.4,5.3 141 1 0 -14.7,11.7a9.4,5.3 141 1 0 14.7,-11.7M180.2,708.8a8.7,5.6 39 1 0 13.4,11.0a8.7,5.6 39 1 0 -13.4,-11.0M71.6,447.4a5.1,4.5 130 1 0 -6.6,7.7a5.1,4.5 130 1 0 6.6,-7.7M910.2,601.9a9.0,4.6 151 1 0 -15.7,8.7a9.0,4.6 151 1 0 15.7,-8.7M159.5,247.9a7.9,5.9 76 1 0 3.9,15.3a7.9,5.9 76 1 0 -3.9,-15.3M51.3,464.5a8.6,7.3 132 1 0 -11.6,12.8a8.6,7.3 132 1 0 11.6,-12.8M144.6,513.1a8.8,8.1 142 1 0 -13.9,10.9a8.8,8.1 142 1 0 13.9,-10.9M909.7,671.9a9.5,5.6 161 1 0 -17.9,6.0a9.5,5.6 161 1 0 17.9,-6.0M56.2,481.1a4.8,4.4 29 1 0 8.5,4.7a4.8,4.4 29 1 0 -8.5,-4.7M486.2,35.6a10.6,10.0 115 1 0 -9.0,19.1a10.6,10.0 115 1 0 9.0,-19.1M147.6,291.8a5.7,3.0 6 1 0 11.4,1.2a5.7,3.0 6 1 0 -11.4,-1.2M569.5,901.4a7.6,5.2 112 1 0 -5.7,14.0a7.6,5.2 112 1 0 5.7,-14.0M737.4,772.6a5.3,4.1 17 1 0 10.1,3.1a5.3,4.1 17 1 0 -10.1,-3.1M762.1,218.7a6.1,4.7 2 1 0 12.2,0.4a6.1,4.7 2 1 0 -12.2,-0.4M565.5,943.3a5.6,4.6 60 1 0 5.5,9.7a5.6,4.6 60 1 0 -5.5,-9.7M373.0,135.1a7.8,5.2 100 1 0 -2.6,15.4a7.8,5.2 100 1 0 2.6,-15.4M836.4,183.9a5.7,5.3 134 1 0 -7.9,8.2a5.7,5.3 134 1 0 7.9,-8.2M481.5,53.5a10.8,9.8 43 1 0 15.8,14.7a10.8,9.8 43 1 0 -15.8,-14.7M782.1,727.5a5.7,2.7 5 1 0 11.3,1.0a5.7,2.7 5 1 0 -11.3,-1.0M808.6,311.5a4.9,2.3 20 1 0 9.3,3.4a4.9,2.3 20 1 0 -9.3,-3.4M861.9,758.0a9.8,6.5 57 1 0 10.6,16.6a9.8,6.5 57 1 0 -10.6,-16.6M783.7,154.4a10.5,5.8 0 1 0 21.1,0.1a10.5,5.8 0 1 0 -21.1,-0.1M157.4,748.3a10.7,5.0 160 1 0 -20.2,7.4a10.7,5.0 160 1 0 20.2,-7.4M837.9,201.1a5.3,4.7 127 1 0 -6.4,8.6a5.3,4.7 127 1 0 6.4,-8.6M754.8,866.7a5.6,3.0 94 1 0 -0.8,11.2a5.6,3.0 94 1 0 0.8,-11.2M633.4,879.6a5.0,2.3 70 1 0 3.4,9.3a5.0,2.3 70 1 0 -3.4,-9.3M152.7,319.1a6.2,5.5 130 1 0 -8.0,9.5a6.2,5.5 130 1 0 8.0,-9.5M144.6,687.5a5.9,4.9 40 1 0 9.0,7.7a5.9,4.9 40 1 0 -9.0,-7.7M73.6,584.2a7.6,4.8 150 1 0 -13.3,7.6a7.6,4.8 150 1 0 13.3,-7.6M760.9,135.8a6.4,3.5 77 1 0 2.9,12.4a6.4,3.5 77 1 0 -2.9,-12.4M893.3,502.2a5.6,3.8 54 1 0 6.5,9.0a5.6,3.8 54 1 0 -6.5,-9.0M544.1,942.2a7.3,3.8 84 1 0 1.5,14.6a7.3,3.8 84 1 0 -1.5,-14.6M139.8,690.5a9.6,6.3 149 1 0 -16.5,9.9a9.6,6.3 149 1 0 16.5,-9.9M666.8,146.1a7.0,4.6 54 1 0 8.1,11.4a7.0,4.6 54 1 0 -8.1,-11.4M105.8,733.1a8.7,4.0 27 1 0 15.4,8.0a8.7,4.0 27 1 0 -15.4,-8.0M820.5,823.2a9.5,5.2 132 1 0 -12.7,14.1a9.5,5.2 132 1 0 12.7,-14.1M858.3,367.0a7.0,6.6 11 1 0 13.8,2.7a7.0,6.6 11 1 0 -13.8,-2.7M193.1,277.9a8.3,4.8 0 1 0 16.6,0.1a8.3,4.8 0 1 0 -16.6,-0.1M648.5,148.5a6.9,5.9 153 1 0 -12.3,6.2a6.9,5.9 153 1 0 12.3,-6.2M353.5,155.7a5.7,4.8 100 1 0 -1.9,11.2a5.7,4.8 100 1 0 1.9,-11.2M623.6,864.6a9.9,7.8 109 1 0 -6.5,18.7a9.9,7.8 109 1 0 6.5,-18.7M830.2,693.5a8.4,7.5 104 1 0 -4.1,16.2a8.4,7.5 104 1 0 4.1,-16.2M483.3,953.9a5.4,2.6 15 1 0 10.4,2.8a5.4,2.6 15 1 0 -10.4,-2.8M845.5,420.0a5.2,3.3 46 1 0 7.2,7.5a5.2,3.3 46 1 0 -7.2,-7.5M810.4,282.0a8.5,6.8 142 1 0 -13.3,10.6a8.5,6.8 142 1 0 13.3,-10.6M286.9,211.2a4.8,4.5 136 1 0 -7.0,6.7a4.8,4.5 136 1 0 7.0,-6.7M474.8,947.1a7.2,3.8 43 1 0 10.6,9.8a7.2,3.8 43 1 0 -10.6,-9.8M290.4,89.3a9.5,8.7 6 1 0 18.8,2.1a9.5,8.7 6 1 0 -18.8,-2.1M682.3,113.5a8.1,3.9 40 1 0 12.4,10.3a8.1,3.9 40 1 0 -12.4,-10.3M275.2,104.9a7.1,3.9 46 1 0 9.9,10.3a7.1,3.9 46 1 0 -9.9,-10.3M871.1,223.2a9.5,4.4 176 1 0 -19.0,1.3a9.5,4.4 176 1 0 19.0,-1.3M658.1,87.1a5.1,3.6 150 1 0 -8.8,5.1a5.1,3.6 150 1 0 8.8,-5.1M671.0,884.5a10.8,5.6 103 1 0 -4.8,21.1a10.8,5.6 103 1 0 4.8,-21.1M658.0,851.1a8.0,4.0 14 1 0 15.6,4.0a8.0,4.0 14 1 0 -15.6,-4.0M173.2,227.7a5.7,4.5 110 1 0 -3.9,10.6a5.7,4.5 110 1 0 3.9,-10.6M659.7,112.8a5.3,3.5 132 1 0 -7.1,7.9a5.3,3.5 132 1 0 7.1,-7.9M646.9,845.8a5.9,4.4 67 1 0 4.6,10.8a5.9,4.4 67 1 0 -4.6,-10.8M46.3,387.4a12.3,6.2 33 1 0 20.7,13.4a12.3,6.2 33 1 0 -20.7,-13.4M501.7,879.7a4.8,2.6 126 1 0 -5.6,7.8a4.8,2.6 126 1 0 5.6,-7.8M771.0,204.8a4.8,3.4 89 1 0 0.2,9.7a4.8,3.4 89 1 0 -0.2,-9.7M418.1,938.4a6.6,5.9 107 1 0 -3.8,12.7a6.6,5.9 107 1 0 3.8,-12.7M757.3,826.8a8.9,8.1 149 1 0 -15.1,9.2a8.9,8.1 149 1 0 15.1,-9.2M845.7,190.6a8.7,5.1 122 1 0 -9.3,14.7a8.7,5.1 122 1 0 9.3,-14.7M145.5,396.5a7.0,4.7 94 1 0 -0.9,14.0a7.0,4.7 94 1 0 0.9,-14.0M937.8,522.2a10.5,7.3 100 1 0 -3.7,20.7a10.5,7.3 100 1 0 3.7,-20.7M897.1,261.6a11.1,8.2 138 1 0 -16.4,14.9a11.1,8.2 138 1 0 16.4,-14.9M182.5,760.6a6.2,5.4 142 1 0 -9.8,7.7a6.2,5.4 142 1 0 9.8,-7.7M66.6,498.9a5.3,3.9 26 1 0 9.5,4.6a5.3,3.9 26 1 0 -9.5,-4.6M114.7,271.8a11.7,10.2 152 1 0 -20.6,11.0a11.7,10.2 152 1 0 20.6,-11.0M726.2,145.8a8.2,5.9 90 1 0 0.1,16.3a8.2,5.9 90 1 0 -0.1,-16.3M816.4,808.7a9.8,5.2 18 1 0 18.6,6.1a9.8,5.2 18 1 0 -18.6,-6.1M514.2,926.0a9.0,8.0 56 1 0 10.2,14.9a9.0,8.0 56 1 0 -10.2,-14.9M112.5,533.1a5.4,2.9 65 1 0 4.6,9.7a5.4,2.9 65 1 0 -4.6,-9.7M935.9,413.7a7.8,5.0 96 1 0 -1.6,15.4a7.8,5.0 96 1 0 1.6,-15.4M662.6,908.0a5.5,3.4 120 1 0 -5.5,9.7a5.5,3.4 120 1 0 5.5,-9.7M726.5,828.6a4.9,2.5 150 1 0 -8.6,4.9a4.9,2.5 150 1 0 8.6,-4.9M139.2,625.2a8.5,6.9 64 1 0 7.6,15.3a8.5,6.9 64 1 0 -7.6,-15.3M76.5,629.5a9.3,6.9 162 1 0 -17.6,5.8a9.3,6.9 162 1 0 17.6,-5.8M206.8,825.3a8.2,4.2 157 1 0 -15.1,6.4a8.2,4.2 157 1 0 15.1,-6.4M93.2,314.8a6.4,5.6 32 1 0 10.9,6.8a6.4,5.6 32 1 0 -10.9,-6.8M362.2,932.7a6.0,4.9 23 1 0 11.1,4.6a6.0,4.9 23 1 0 -11.1,-4.6M162.2,707.5a8.2,5.2 152 1 0 -14.6,7.6a8.2,5.2 152 1 0 14.6,-7.6M937.8,610.2a5.2,3.3 55 1 0 6.1,8.5a5.2,3.3 55 1 0 -6.1,-8.5M934.6,603.4a8.4,6.2 151 1 0 -14.7,8.1a8.4,6.2 151 1 0 14.7,-8.1M701.6,161.6a5.6,4.2 154 1 0 -10.0,4.9a5.6,4.2 154 1 0 10.0,-4.9M128.2,676.2a10.8,5.1 137 1 0 -15.8,14.6a10.8,5.1 137 1 0 15.8,-14.6M826.5,790.2a6.3,3.7 11 1 0 12.3,2.4a6.3,3.7 11 1 0 -12.3,-2.4M626.9,871.9a6.4,4.4 58 1 0 6.7,11.0a6.4,4.4 58 1 0 -6.7,-11.0M211.5,841.4a4.9,4.1 179 1 0 -9.8,0.2a4.9,4.1 179 1 0 9.8,-0.2M96.2,678.4a7.7,5.9 166 1 0 -14.9,3.9a7.7,5.9 166 1 0 14.9,-3.9M240.4,231.6a7.2,3.7 44 1 0 10.3,10.0a7.2,3.7 44 1 0 -10.3,-10.0M876.2,562.4a9.0,6.9 33 1 0 15.0,9.9a9.0,6.9 33 1 0 -15.0,-9.9M287.6,888.6a10.5,7.6 66 1 0 8.4,19.2a10.5,7.6 66 1 0 -8.4,-19.2M241.2,774.1a5.3,4.1 102 1 0 -2.2,10.4a5.3,4.1 102 1 0 2.2,-10.4M746.8,862.4a7.9,4.2 124 1 0 -8.8,13.2a7.9,4.2 124 1 0 8.8,-13.2M161.0,621.3a4.9,2.7 79 1 0 1.8,9.6a4.9,2.7 79 1 0 -1.8,-9.6" fill="url(#kjd)" opacity="1"/><path d="M889.8,649.4a4.8,2.4 13 1 0 9.4,2.1a4.8,2.4 13 1 0 -9.4,-2.1M316.9,104.3a5.9,3.5 82 1 0 1.7,11.7a5.9,3.5 82 1 0 -1.7,-11.7M610.4,110.4a5.4,4.8 95 1 0 -0.9,10.8a5.4,4.8 95 1 0 0.9,-10.8M814.5,180.9a8.9,6.1 104 1 0 -4.4,17.3a8.9,6.1 104 1 0 4.4,-17.3M689.2,190.9a6.2,5.0 11 1 0 12.2,2.4a6.2,5.0 11 1 0 -12.2,-2.4M157.4,770.0a5.0,2.4 11 1 0 9.8,1.9a5.0,2.4 11 1 0 -9.8,-1.9M661.8,136.7a5.3,2.5 64 1 0 4.7,9.6a5.3,2.5 64 1 0 -4.7,-9.6M823.4,356.3a8.9,5.0 40 1 0 13.7,11.4a8.9,5.0 40 1 0 -13.7,-11.4M283.7,182.1a4.9,4.1 164 1 0 -9.4,2.7a4.9,4.1 164 1 0 9.4,-2.7M896.4,447.6a5.9,2.7 24 1 0 10.9,4.8a5.9,2.7 24 1 0 -10.9,-4.8M695.0,868.5a8.9,6.3 59 1 0 9.3,15.2a8.9,6.3 59 1 0 -9.3,-15.2M131.6,364.0a5.0,2.9 45 1 0 7.0,7.0a5.0,2.9 45 1 0 -7.0,-7.0M574.9,856.7a5.9,5.1 178 1 0 -11.7,0.4a5.9,5.1 178 1 0 11.7,-0.4M721.1,860.9a7.2,4.4 35 1 0 11.8,8.3a7.2,4.4 35 1 0 -11.8,-8.3M412.8,50.7a7.9,4.9 3 1 0 15.8,0.9a7.9,4.9 3 1 0 -15.8,-0.9M845.5,647.1a6.2,5.7 100 1 0 -2.1,12.3a6.2,5.7 100 1 0 2.1,-12.3M460.9,83.8a5.3,2.6 168 1 0 -10.3,2.1a5.3,2.6 168 1 0 10.3,-2.1M406.0,933.9a5.9,3.9 28 1 0 10.3,5.6a5.9,3.9 28 1 0 -10.3,-5.6M463.3,854.4a9.2,8.6 44 1 0 13.2,12.8a9.2,8.6 44 1 0 -13.2,-12.8M340.0,901.8a4.8,3.4 85 1 0 0.8,9.6a4.8,3.4 85 1 0 -0.8,-9.6M939.8,455.5a9.4,8.2 8 1 0 18.7,2.6a9.4,8.2 8 1 0 -18.7,-2.6M803.8,727.0a6.9,5.4 113 1 0 -5.3,12.7a6.9,5.4 113 1 0 5.3,-12.7M105.7,544.9a8.7,4.3 116 1 0 -7.6,15.7a8.7,4.3 116 1 0 7.6,-15.7M866.6,447.3a4.8,4.5 148 1 0 -8.1,5.2a4.8,4.5 148 1 0 8.1,-5.2M909.2,492.3a6.1,2.9 50 1 0 7.9,9.2a6.1,2.9 50 1 0 -7.9,-9.2M254.4,222.1a9.2,4.4 130 1 0 -11.7,14.2a9.2,4.4 130 1 0 11.7,-14.2M446.9,67.4a9.2,4.4 52 1 0 11.5,14.4a9.2,4.4 52 1 0 -11.5,-14.4M901.0,293.4a7.2,5.9 54 1 0 8.5,11.5a7.2,5.9 54 1 0 -8.5,-11.5M496.6,62.2a6.5,4.0 68 1 0 4.9,12.1a6.5,4.0 68 1 0 -4.9,-12.1M843.7,787.3a7.6,4.3 70 1 0 5.2,14.3a7.6,4.3 70 1 0 -5.2,-14.3M138.9,228.8a6.0,4.6 173 1 0 -11.8,1.5a6.0,4.6 173 1 0 11.8,-1.5M311.3,183.2a5.0,4.7 38 1 0 7.9,6.2a5.0,4.7 38 1 0 -7.9,-6.2M790.5,852.6a4.9,4.4 162 1 0 -9.3,3.1a4.9,4.4 162 1 0 9.3,-3.1M486.0,36.3a8.9,5.5 67 1 0 6.9,16.5a8.9,5.5 67 1 0 -6.9,-16.5M727.3,897.8a5.8,3.0 172 1 0 -11.6,1.6a5.8,3.0 172 1 0 11.6,-1.6M256.5,867.2a11.8,9.5 47 1 0 16.0,17.3a11.8,9.5 47 1 0 -16.0,-17.3M932.6,340.2a5.6,5.2 172 1 0 -11.1,1.5a5.6,5.2 172 1 0 11.1,-1.5M170.0,789.6a6.8,3.7 167 1 0 -13.2,3.0a6.8,3.7 167 1 0 13.2,-3.0M505.2,950.6a4.8,4.5 59 1 0 5.0,8.3a4.8,4.5 59 1 0 -5.0,-8.3M394.9,80.1a5.5,4.3 112 1 0 -4.0,10.2a5.5,4.3 112 1 0 4.0,-10.2M64.3,479.2a10.2,5.1 178 1 0 -20.4,0.6a10.2,5.1 178 1 0 20.4,-0.6M840.7,803.1a12.2,7.7 167 1 0 -23.8,5.3a12.2,7.7 167 1 0 23.8,-5.3M158.2,265.1a5.3,3.0 25 1 0 9.7,4.6a5.3,3.0 25 1 0 -9.7,-4.6M920.9,669.6a6.6,3.3 115 1 0 -5.6,11.9a6.6,3.3 115 1 0 5.6,-11.9M346.8,881.7a6.1,5.7 156 1 0 -11.0,5.0a6.1,5.7 156 1 0 11.0,-5.0M132.1,681.6a6.5,4.9 4 1 0 12.9,1.0a6.5,4.9 4 1 0 -12.9,-1.0M48.3,574.5a5.1,3.4 17 1 0 9.8,2.9a5.1,3.4 17 1 0 -9.8,-2.9M53.5,466.1a7.4,3.9 171 1 0 -14.7,2.3a7.4,3.9 171 1 0 14.7,-2.3M216.7,159.9a10.6,9.5 104 1 0 -5.3,20.6a10.6,9.5 104 1 0 5.3,-20.6M788.3,714.1a6.9,4.0 144 1 0 -11.1,8.2a6.9,4.0 144 1 0 11.1,-8.2M234.8,124.5a4.8,3.0 19 1 0 9.1,3.1a4.8,3.0 19 1 0 -9.1,-3.1M104.0,331.4a8.4,6.9 169 1 0 -16.5,3.3a8.4,6.9 169 1 0 16.5,-3.3M502.1,866.3a4.8,2.7 73 1 0 2.8,9.2a4.8,2.7 73 1 0 -2.8,-9.2M867.8,638.6a4.8,2.5 169 1 0 -9.4,1.8a4.8,2.5 169 1 0 9.4,-1.8M633.9,886.5a6.9,3.7 146 1 0 -11.6,7.7a6.9,3.7 146 1 0 11.6,-7.7M885.0,509.3a8.1,5.5 134 1 0 -11.1,11.7a8.1,5.5 134 1 0 11.1,-11.7M606.2,91.1a5.6,3.1 174 1 0 -11.1,1.2a5.6,3.1 174 1 0 11.1,-1.2M901.9,404.2a10.0,6.6 6 1 0 19.9,1.9a10.0,6.6 6 1 0 -19.9,-1.9M527.4,136.7a4.8,4.1 88 1 0 0.3,9.6a4.8,4.1 88 1 0 -0.3,-9.6M397.3,934.4a9.1,7.0 20 1 0 17.2,6.2a9.1,7.0 20 1 0 -17.2,-6.2M616.8,917.0a11.2,10.0 68 1 0 8.3,20.8a11.2,10.0 68 1 0 -8.3,-20.8M699.1,871.9a9.4,6.4 23 1 0 17.4,7.3a9.4,6.4 23 1 0 -17.4,-7.3M191.3,722.4a7.9,5.4 114 1 0 -6.3,14.4a7.9,5.4 114 1 0 6.3,-14.4M346.3,873.7a5.0,4.0 141 1 0 -7.7,6.3a5.0,4.0 141 1 0 7.7,-6.3M197.0,170.0a6.7,4.4 112 1 0 -5.0,12.5a6.7,4.4 112 1 0 5.0,-12.5M337.8,169.5a5.1,3.3 140 1 0 -7.8,6.6a5.1,3.3 140 1 0 7.8,-6.6M136.5,520.6a4.8,4.1 29 1 0 8.4,4.7a4.8,4.1 29 1 0 -8.4,-4.7M892.6,341.6a5.0,4.0 97 1 0 -1.3,9.9a5.0,4.0 97 1 0 1.3,-9.9M91.5,459.8a9.4,8.7 74 1 0 5.2,18.0a9.4,8.7 74 1 0 -5.2,-18.0M214.3,858.4a5.8,3.8 2 1 0 11.6,0.5a5.8,3.8 2 1 0 -11.6,-0.5M766.9,773.9a8.8,6.4 84 1 0 1.7,17.5a8.8,6.4 84 1 0 -1.7,-17.5M559.1,854.6a5.7,4.9 147 1 0 -9.5,6.1a5.7,4.9 147 1 0 9.5,-6.1M140.9,675.2a8.0,7.0 167 1 0 -15.6,3.5a8.0,7.0 167 1 0 15.6,-3.5M932.0,387.9a8.6,6.5 5 1 0 17.2,1.5a8.6,6.5 5 1 0 -17.2,-1.5M859.8,218.3a9.5,8.3 61 1 0 9.2,16.6a9.5,8.3 61 1 0 -9.2,-16.6M288.2,879.1a5.9,4.9 114 1 0 -4.8,10.7a5.9,4.9 114 1 0 4.8,-10.7M874.6,597.2a9.6,5.8 9 1 0 19.0,3.0a9.6,5.8 9 1 0 -19.0,-3.0M954.2,507.4a11.6,9.8 118 1 0 -11.0,20.3a11.6,9.8 118 1 0 11.0,-20.3M850.8,273.4a7.7,5.8 125 1 0 -8.9,12.6a7.7,5.8 125 1 0 8.9,-12.6M318.4,87.9a8.8,4.4 137 1 0 -12.9,11.9a8.8,4.4 137 1 0 12.9,-11.9M949.0,608.2a10.4,7.0 165 1 0 -20.1,5.3a10.4,7.0 165 1 0 20.1,-5.3M410.8,51.1a4.8,2.4 147 1 0 -8.1,5.2a4.8,2.4 147 1 0 8.1,-5.2M231.8,800.5a7.7,6.5 69 1 0 5.4,14.5a7.7,6.5 69 1 0 -5.4,-14.5M395.1,133.8a5.7,4.9 176 1 0 -11.4,0.8a5.7,4.9 176 1 0 11.4,-0.8M810.0,218.2a6.8,3.7 34 1 0 11.3,7.7a6.8,3.7 34 1 0 -11.3,-7.7M666.7,856.4a6.0,4.2 72 1 0 3.6,11.4a6.0,4.2 72 1 0 -3.6,-11.4M757.9,862.5a12.7,9.7 19 1 0 24.0,8.3a12.7,9.7 19 1 0 -24.0,-8.3M605.3,53.3a8.2,3.8 94 1 0 -1.0,16.4a8.2,3.8 94 1 0 1.0,-16.4M851.3,566.7a8.3,4.8 102 1 0 -3.5,16.3a8.3,4.8 102 1 0 3.5,-16.3M268.6,212.3a7.2,3.8 81 1 0 2.3,14.3a7.2,3.8 81 1 0 -2.3,-14.3M799.8,701.8a8.4,5.2 81 1 0 2.5,16.7a8.4,5.2 81 1 0 -2.5,-16.7M738.7,862.7a10.5,7.3 30 1 0 18.1,10.5a10.5,7.3 30 1 0 -18.1,-10.5M428.6,47.2a10.5,9.2 152 1 0 -18.4,10.0a10.5,9.2 152 1 0 18.4,-10.0M55.3,515.4a11.6,6.8 157 1 0 -21.4,9.1a11.6,6.8 157 1 0 21.4,-9.1M914.6,509.8a6.6,5.4 22 1 0 12.3,4.9a6.6,5.4 22 1 0 -12.3,-4.9M848.5,631.4a9.5,6.8 92 1 0 -0.8,19.0a9.5,6.8 92 1 0 0.8,-19.0M913.8,539.7a7.4,3.7 126 1 0 -8.8,12.0a7.4,3.7 126 1 0 8.8,-12.0M166.8,767.7a10.1,9.3 71 1 0 6.5,19.2a10.1,9.3 71 1 0 -6.5,-19.2M572.6,62.5a5.5,5.2 78 1 0 2.2,10.9a5.5,5.2 78 1 0 -2.2,-10.9M855.7,399.3a5.3,3.4 114 1 0 -4.3,9.7a5.3,3.4 114 1 0 4.3,-9.7M47.0,412.1a6.9,3.6 4 1 0 13.7,0.9a6.9,3.6 4 1 0 -13.7,-0.9M890.3,420.8a9.8,8.8 146 1 0 -16.2,11.1a9.8,8.8 146 1 0 16.2,-11.1M916.0,363.4a5.9,4.4 22 1 0 11.0,4.4a5.9,4.4 22 1 0 -11.0,-4.4M906.2,379.6a5.6,2.9 96 1 0 -1.2,11.2a5.6,2.9 96 1 0 1.2,-11.2M818.2,812.9a5.9,3.4 52 1 0 7.3,9.3a5.9,3.4 52 1 0 -7.3,-9.3M858.1,709.6a9.8,7.6 103 1 0 -4.3,19.1a9.8,7.6 103 1 0 4.3,-19.1M622.4,873.5a6.5,4.5 110 1 0 -4.5,12.2a6.5,4.5 110 1 0 4.5,-12.2M332.7,908.7a5.5,4.1 69 1 0 3.9,10.2a5.5,4.1 69 1 0 -3.9,-10.2M795.3,184.8a4.9,4.0 79 1 0 1.8,9.6a4.9,4.0 79 1 0 -1.8,-9.6M478.9,101.9a8.5,6.8 141 1 0 -13.2,10.6a8.5,6.8 141 1 0 13.2,-10.6M143.3,500.6a6.7,5.9 141 1 0 -10.4,8.4a6.7,5.9 141 1 0 10.4,-8.4M164.8,223.3a6.8,4.1 130 1 0 -8.8,10.4a6.8,4.1 130 1 0 8.8,-10.4M77.7,446.3a8.5,6.3 64 1 0 7.3,15.3a8.5,6.3 64 1 0 -7.3,-15.3M276.9,790.9a7.3,4.6 18 1 0 13.9,4.5a7.3,4.6 18 1 0 -13.9,-4.5M120.7,639.2a11.0,9.5 95 1 0 -2.1,22.0a11.0,9.5 95 1 0 2.1,-22.0M739.2,863.8a7.4,4.0 34 1 0 12.2,8.2a7.4,4.0 34 1 0 -12.2,-8.2M548.8,59.4a9.1,5.3 30 1 0 15.7,9.2a9.1,5.3 30 1 0 -15.7,-9.2M799.8,710.2a6.9,4.4 81 1 0 2.2,13.6a6.9,4.4 81 1 0 -2.2,-13.6M323.4,860.1a5.0,3.5 65 1 0 4.2,9.0a5.0,3.5 65 1 0 -4.2,-9.0M505.1,39.4a9.2,8.0 135 1 0 -12.9,13.1a9.2,8.0 135 1 0 12.9,-13.1M423.4,942.6a12.0,9.6 167 1 0 -23.4,5.2a12.0,9.6 167 1 0 23.4,-5.2M465.5,118.0a7.3,5.8 10 1 0 14.4,2.5a7.3,5.8 10 1 0 -14.4,-2.5M392.7,131.1a5.4,4.2 174 1 0 -10.8,1.0a5.4,4.2 174 1 0 10.8,-1.0M70.4,374.0a4.9,2.7 74 1 0 2.7,9.4a4.9,2.7 74 1 0 -2.7,-9.4M66.9,449.7a11.1,9.9 54 1 0 13.0,17.9a11.1,9.9 54 1 0 -13.0,-17.9M701.8,847.8a7.5,6.5 138 1 0 -11.1,10.0a7.5,6.5 138 1 0 11.1,-10.0M833.4,696.5a10.5,7.3 20 1 0 19.7,7.0a10.5,7.3 20 1 0 -19.7,-7.0" fill="url(#kjd)" opacity="0.78"/><path d="M774.1,853.2a6.0,4.4 33 1 0 10.1,6.4a6.0,4.4 33 1 0 -10.1,-6.4M748.6,843.0a4.8,3.6 138 1 0 -7.1,6.5a4.8,3.6 138 1 0 7.1,-6.5M799.9,821.7a6.5,4.4 15 1 0 12.6,3.2a6.5,4.4 15 1 0 -12.6,-3.2M138.5,379.2a8.4,5.6 50 1 0 10.8,13.0a8.4,5.6 50 1 0 -10.8,-13.0M217.4,793.6a10.8,8.2 93 1 0 -1.1,21.6a10.8,8.2 93 1 0 1.1,-21.6M307.1,88.6a11.5,9.7 157 1 0 -21.2,8.8a11.5,9.7 157 1 0 21.2,-8.8M852.2,755.1a4.8,2.5 111 1 0 -3.4,9.0a4.8,2.5 111 1 0 3.4,-9.0M714.7,98.8a4.8,2.5 95 1 0 -0.9,9.6a4.8,2.5 95 1 0 0.9,-9.6M67.9,374.7a7.7,6.1 155 1 0 -13.9,6.4a7.7,6.1 155 1 0 13.9,-6.4M470.1,929.7a5.2,4.4 96 1 0 -1.1,10.4a5.2,4.4 96 1 0 1.1,-10.4M294.7,887.5a10.3,8.8 153 1 0 -18.4,9.2a10.3,8.8 153 1 0 18.4,-9.2M941.8,576.6a5.7,3.8 172 1 0 -11.2,1.5a5.7,3.8 172 1 0 11.2,-1.5M654.6,919.2a8.4,5.8 151 1 0 -14.7,8.1a8.4,5.8 151 1 0 14.7,-8.1M497.7,70.2a5.2,4.5 60 1 0 5.3,9.1a5.2,4.5 60 1 0 -5.3,-9.1M930.6,418.3a6.5,3.5 130 1 0 -8.4,9.8a6.5,3.5 130 1 0 8.4,-9.8M804.6,818.0a11.4,9.9 26 1 0 20.5,10.1a11.4,9.9 26 1 0 -20.5,-10.1M897.6,419.3a7.0,6.2 78 1 0 2.9,13.7a7.0,6.2 78 1 0 -2.9,-13.7M472.4,925.8a5.1,3.4 64 1 0 4.5,9.1a5.1,3.4 64 1 0 -4.5,-9.1M178.9,308.5a6.0,4.3 90 1 0 -0.1,12.1a6.0,4.3 90 1 0 0.1,-12.1M566.1,79.9a7.5,5.0 164 1 0 -14.4,4.1a7.5,5.0 164 1 0 14.4,-4.1M177.8,218.6a7.1,5.1 81 1 0 2.1,14.1a7.1,5.1 81 1 0 -2.1,-14.1M145.6,548.9a7.5,4.3 170 1 0 -14.7,2.7a7.5,4.3 170 1 0 14.7,-2.7M904.1,693.1a4.9,4.4 141 1 0 -7.7,6.2a4.9,4.4 141 1 0 7.7,-6.2M203.6,200.8a4.9,4.6 142 1 0 -7.7,6.0a4.9,4.6 142 1 0 7.7,-6.0M848.0,768.0a4.8,2.5 49 1 0 6.4,7.3a4.8,2.5 49 1 0 -6.4,-7.3M821.6,658.9a7.1,6.2 15 1 0 13.7,3.7a7.1,6.2 15 1 0 -13.7,-3.7M678.1,103.1a7.1,5.0 71 1 0 4.7,13.4a7.1,5.0 71 1 0 -4.7,-13.4M366.6,163.8a5.6,4.3 127 1 0 -6.8,8.9a5.6,4.3 127 1 0 6.8,-8.9M488.7,948.3a4.9,3.9 157 1 0 -9.1,3.9a4.9,3.9 157 1 0 9.1,-3.9M498.5,87.2a8.4,5.1 70 1 0 5.7,15.8a8.4,5.1 70 1 0 -5.7,-15.8M810.2,239.8a8.6,6.1 25 1 0 15.6,7.3a8.6,6.1 25 1 0 -15.6,-7.3M121.3,481.3a8.5,7.6 105 1 0 -4.4,16.5a8.5,7.6 105 1 0 4.4,-16.5M45.1,520.3a10.3,7.4 91 1 0 -0.2,20.7a10.3,7.4 91 1 0 0.2,-20.7M441.8,46.2a9.5,6.1 89 1 0 0.4,19.1a9.5,6.1 89 1 0 -0.4,-19.1M916.5,657.6a8.8,5.2 122 1 0 -9.2,14.9a8.8,5.2 122 1 0 9.2,-14.9M74.1,635.3a5.4,4.0 38 1 0 8.5,6.7a5.4,4.0 38 1 0 -8.5,-6.7M802.2,234.3a5.4,2.5 88 1 0 0.5,10.7a5.4,2.5 88 1 0 -0.5,-10.7M350.8,845.7a4.8,2.4 151 1 0 -8.4,4.6a4.8,2.4 151 1 0 8.4,-4.6M802.0,723.4a5.5,3.2 45 1 0 7.8,7.8a5.5,3.2 45 1 0 -7.8,-7.8M58.0,466.8a6.4,5.5 159 1 0 -11.9,4.5a6.4,5.5 159 1 0 11.9,-4.5M723.6,885.7a5.4,3.0 89 1 0 0.1,10.9a5.4,3.0 89 1 0 -0.1,-10.9M106.8,434.5a10.3,8.5 117 1 0 -9.2,18.4a10.3,8.5 117 1 0 9.2,-18.4M93.9,607.4a4.8,4.4 42 1 0 7.2,6.5a4.8,4.4 42 1 0 -7.2,-6.5M337.3,919.3a7.4,4.3 76 1 0 3.7,14.3a7.4,4.3 76 1 0 -3.7,-14.3M315.8,81.0a10.1,5.6 91 1 0 -0.3,20.3a10.1,5.6 91 1 0 0.3,-20.3M942.0,397.0a6.3,4.2 148 1 0 -10.6,6.7a6.3,4.2 148 1 0 10.6,-6.7M900.4,626.1a6.2,3.9 35 1 0 10.2,7.1a6.2,3.9 35 1 0 -10.2,-7.1M868.5,220.8a6.7,3.2 138 1 0 -10.0,9.0a6.7,3.2 138 1 0 10.0,-9.0M324.8,903.9a4.8,3.7 165 1 0 -9.3,2.5a4.8,3.7 165 1 0 9.3,-2.5M630.9,118.4a9.0,5.5 109 1 0 -6.0,17.0a9.0,5.5 109 1 0 6.0,-17.0M112.7,559.4a8.9,5.3 7 1 0 17.6,2.2a8.9,5.3 7 1 0 -17.6,-2.2M791.0,179.9a5.6,2.8 170 1 0 -11.0,1.9a5.6,2.8 170 1 0 11.0,-1.9M159.2,670.6a6.1,3.2 83 1 0 1.5,12.0a6.1,3.2 83 1 0 -1.5,-12.0M907.9,536.6a8.0,6.1 16 1 0 15.4,4.4a8.0,6.1 16 1 0 -15.4,-4.4M820.9,762.2a9.6,4.9 36 1 0 15.6,11.2a9.6,4.9 36 1 0 -15.6,-11.2M53.6,519.8a9.7,5.3 82 1 0 2.5,19.3a9.7,5.3 82 1 0 -2.5,-19.3M716.1,216.8a7.5,7.0 35 1 0 12.3,8.5a7.5,7.0 35 1 0 -12.3,-8.5M675.1,81.8a7.4,4.3 37 1 0 11.7,9.0a7.4,4.3 37 1 0 -11.7,-9.0M336.1,161.7a5.1,3.6 21 1 0 9.5,3.6a5.1,3.6 21 1 0 -9.5,-3.6M912.6,469.3a6.1,3.3 80 1 0 2.2,11.9a6.1,3.3 80 1 0 -2.2,-11.9M172.8,210.7a7.2,4.1 24 1 0 13.2,5.8a7.2,4.1 24 1 0 -13.2,-5.8M342.9,908.0a4.9,3.9 141 1 0 -7.5,6.1a4.9,3.9 141 1 0 7.5,-6.1M226.4,199.1a7.9,6.9 85 1 0 1.5,15.7a7.9,6.9 85 1 0 -1.5,-15.7M379.2,136.5a6.2,3.7 103 1 0 -2.7,12.0a6.2,3.7 103 1 0 2.7,-12.0M592.4,895.4a4.9,2.3 26 1 0 8.8,4.3a4.9,2.3 26 1 0 -8.8,-4.3M348.0,116.7a8.3,6.2 12 1 0 16.2,3.4a8.3,6.2 12 1 0 -16.2,-3.4M240.7,788.4a8.7,7.7 12 1 0 17.0,3.6a8.7,7.7 12 1 0 -17.0,-3.6M724.4,179.1a7.4,4.4 114 1 0 -5.9,13.6a7.4,4.4 114 1 0 5.9,-13.6M938.5,553.0a5.8,3.5 66 1 0 4.7,10.6a5.8,3.5 66 1 0 -4.7,-10.6M141.6,645.7a5.8,3.3 97 1 0 -1.4,11.6a5.8,3.3 97 1 0 1.4,-11.6M665.3,883.8a6.0,5.6 47 1 0 8.3,8.8a6.0,5.6 47 1 0 -8.3,-8.8M841.8,681.4a7.9,5.0 113 1 0 -6.2,14.5a7.9,5.0 113 1 0 6.2,-14.5M549.2,919.6a7.3,5.7 136 1 0 -10.4,10.2a7.3,5.7 136 1 0 10.4,-10.2M247.7,853.3a5.2,4.2 119 1 0 -5.0,9.0a5.2,4.2 119 1 0 5.0,-9.0M276.9,892.2a12.2,11.4 18 1 0 23.2,7.7a12.2,11.4 18 1 0 -23.2,-7.7M856.6,750.1a11.8,7.9 132 1 0 -15.8,17.5a11.8,7.9 132 1 0 15.8,-17.5M764.6,818.2a6.3,4.2 163 1 0 -12.1,3.6a6.3,4.2 163 1 0 12.1,-3.6M564.2,96.6a9.4,6.4 115 1 0 -8.1,17.0a9.4,6.4 115 1 0 8.1,-17.0M593.9,886.6a6.1,5.8 22 1 0 11.4,4.6a6.1,5.8 22 1 0 -11.4,-4.6M888.7,340.1a5.4,3.0 71 1 0 3.6,10.2a5.4,3.0 71 1 0 -3.6,-10.2M849.3,630.1a9.3,8.1 25 1 0 16.9,8.0a9.3,8.1 25 1 0 -16.9,-8.0M196.9,157.3a4.8,2.8 118 1 0 -4.5,8.5a4.8,2.8 118 1 0 4.5,-8.5M860.2,764.0a5.6,2.9 62 1 0 5.2,9.9a5.6,2.9 62 1 0 -5.2,-9.9M820.7,275.7a5.1,4.3 110 1 0 -3.4,9.6a5.1,4.3 110 1 0 3.4,-9.6M310.8,170.6a8.2,6.5 36 1 0 13.3,9.5a8.2,6.5 36 1 0 -13.3,-9.5M114.5,418.0a6.3,3.7 100 1 0 -2.2,12.5a6.3,3.7 100 1 0 2.2,-12.5M70.1,522.8a7.3,6.4 1 1 0 14.6,0.3a7.3,6.4 1 1 0 -14.6,-0.3M89.1,575.6a8.2,5.4 67 1 0 6.3,15.1a8.2,5.4 67 1 0 -6.3,-15.1M349.5,160.1a5.6,3.9 92 1 0 -0.4,11.2a5.6,3.9 92 1 0 0.4,-11.2M210.5,812.8a7.3,4.8 38 1 0 11.4,8.9a7.3,4.8 38 1 0 -11.4,-8.9M60.0,483.1a7.3,6.2 118 1 0 -6.8,13.0a7.3,6.2 118 1 0 6.8,-13.0M695.3,904.8a10.1,6.4 118 1 0 -9.5,17.8a10.1,6.4 118 1 0 9.5,-17.8M312.5,889.4a8.3,6.1 10 1 0 16.3,2.8a8.3,6.1 10 1 0 -16.3,-2.8M940.3,538.0a7.9,5.4 177 1 0 -15.8,1.0a7.9,5.4 177 1 0 15.8,-1.0M896.6,510.7a5.0,4.4 16 1 0 9.6,2.7a5.0,4.4 16 1 0 -9.6,-2.7M875.8,614.7a8.0,4.0 131 1 0 -10.6,12.1a8.0,4.0 131 1 0 10.6,-12.1M220.3,207.4a6.5,6.1 46 1 0 9.1,9.3a6.5,6.1 46 1 0 -9.1,-9.3M351.7,861.7a5.1,2.5 88 1 0 0.4,10.2a5.1,2.5 88 1 0 -0.4,-10.2M214.9,803.8a6.5,5.5 26 1 0 11.7,5.7a6.5,5.5 26 1 0 -11.7,-5.7M142.7,232.2a6.7,5.3 68 1 0 5.1,12.4a6.7,5.3 68 1 0 -5.1,-12.4M125.3,692.2a9.4,8.2 8 1 0 18.7,2.5a9.4,8.2 8 1 0 -18.7,-2.5M67.1,593.4a5.7,3.8 142 1 0 -9.0,6.9a5.7,3.8 142 1 0 9.0,-6.9M588.0,70.7a11.2,10.5 147 1 0 -18.9,12.1a11.2,10.5 147 1 0 18.9,-12.1M154.3,365.7a6.3,3.0 164 1 0 -12.0,3.5a6.3,3.0 164 1 0 12.0,-3.5M143.0,246.0a5.0,3.7 46 1 0 7.0,7.3a5.0,3.7 46 1 0 -7.0,-7.3M296.7,101.6a8.0,4.9 19 1 0 15.1,5.2a8.0,4.9 19 1 0 -15.1,-5.2M559.6,856.5a8.6,5.8 25 1 0 15.5,7.3a8.6,5.8 25 1 0 -15.5,-7.3M402.3,89.8a5.1,3.3 48 1 0 6.8,7.6a5.1,3.3 48 1 0 -6.8,-7.6M341.2,836.7a5.0,4.4 10 1 0 9.7,1.8a5.0,4.4 10 1 0 -9.7,-1.8M256.1,766.4a9.2,5.5 18 1 0 17.6,5.6a9.2,5.5 18 1 0 -17.6,-5.6M650.9,150.6a5.6,4.6 69 1 0 4.1,10.5a5.6,4.6 69 1 0 -4.1,-10.5M615.6,150.4a8.3,5.9 10 1 0 16.4,2.8a8.3,5.9 10 1 0 -16.4,-2.8M417.5,846.9a5.4,2.6 29 1 0 9.5,5.2a5.4,2.6 29 1 0 -9.5,-5.2M835.1,777.6a11.9,7.4 28 1 0 21.1,11.1a11.9,7.4 28 1 0 -21.1,-11.1M264.8,818.0a7.6,5.4 148 1 0 -12.8,8.1a7.6,5.4 148 1 0 12.8,-8.1M926.4,385.0a6.8,3.2 2 1 0 13.5,0.5a6.8,3.2 2 1 0 -13.5,-0.5M112.7,321.4a10.7,10.2 97 1 0 -2.6,21.3a10.7,10.2 97 1 0 2.6,-21.3M169.3,742.0a7.5,5.2 174 1 0 -14.9,1.7a7.5,5.2 174 1 0 14.9,-1.7M710.7,874.6a11.9,6.0 92 1 0 -0.9,23.8a11.9,6.0 92 1 0 0.9,-23.8M824.5,250.2a9.2,6.0 160 1 0 -17.2,6.3a9.2,6.0 160 1 0 17.2,-6.3M221.0,194.4a6.0,2.8 115 1 0 -5.0,10.9a6.0,2.8 115 1 0 5.0,-10.9M165.1,704.8a5.6,3.4 1 1 0 11.3,0.1a5.6,3.4 1 1 0 -11.3,-0.1M460.8,897.3a7.0,4.6 103 1 0 -3.3,13.7a7.0,4.6 103 1 0 3.3,-13.7M114.0,444.7a7.2,3.3 11 1 0 14.2,2.8a7.2,3.3 11 1 0 -14.2,-2.8M849.8,618.8a6.9,5.2 79 1 0 2.6,13.5a6.9,5.2 79 1 0 -2.6,-13.5M495.4,945.4a11.9,10.7 57 1 0 13.0,19.8a11.9,10.7 57 1 0 -13.0,-19.8M677.4,88.0a8.1,7.5 89 1 0 0.2,16.2a8.1,7.5 89 1 0 -0.2,-16.2M124.5,755.3a5.1,2.9 63 1 0 4.6,9.1a5.1,2.9 63 1 0 -4.6,-9.1M240.7,748.1a5.2,2.9 91 1 0 -0.2,10.3a5.2,2.9 91 1 0 0.2,-10.3M81.0,460.5a5.6,4.4 69 1 0 4.0,10.5a5.6,4.4 69 1 0 -4.0,-10.5M422.8,919.8a10.9,9.6 159 1 0 -20.3,7.9a10.9,9.6 159 1 0 20.3,-7.9M801.3,823.0a4.8,3.0 119 1 0 -4.7,8.4a4.8,3.0 119 1 0 4.7,-8.4M193.3,170.9a5.0,4.1 132 1 0 -6.8,7.5a5.0,4.1 132 1 0 6.8,-7.5M404.3,58.9a6.8,3.1 63 1 0 6.2,12.1a6.8,3.1 63 1 0 -6.2,-12.1M922.0,627.5a5.0,4.6 38 1 0 7.9,6.2a5.0,4.6 38 1 0 -7.9,-6.2M325.4,913.2a9.3,5.3 43 1 0 13.6,12.6a9.3,5.3 43 1 0 -13.6,-12.6M762.3,817.9a5.9,4.9 99 1 0 -1.8,11.7a5.9,4.9 99 1 0 1.8,-11.7M712.3,194.4a5.1,4.2 149 1 0 -8.7,5.2a5.1,4.2 149 1 0 8.7,-5.2M669.0,129.1a9.8,6.9 89 1 0 0.3,19.7a9.8,6.9 89 1 0 -0.3,-19.7M431.4,43.9a10.8,7.2 142 1 0 -17.0,13.4a10.8,7.2 142 1 0 17.0,-13.4" fill="url(#kjd)" opacity="0.55"/></svg>